<?xml version="1.0" standalone="no"?><!DOCTYPE svg PUBLIC "-//W3C//DTD SVG 1.1//EN" "http://www.w3.org/Graphics/SVG/1.1/DTD/svg11.dtd"><svg t="1669019926121" class="icon" viewBox="0 0 1024 1024" version="1.1" xmlns="http://www.w3.org/2000/svg" p-id="20116" xmlns:xlink="http://www.w3.org/1999/xlink" width="128" height="128"><path d="M361.39008 444.68224l-47.20128 78.69952c-0.78848-0.08192-1.73056-0.08192-2.51392-0.08192-4.5568 0-8.87808 0.71168-12.95872 1.96608l-32.44032-32.44032a43.776 43.776 0 0 0 1.96608-12.95872c0-23.95648-19.4816-43.43296-43.43808-43.43296s-43.42784 19.4816-43.42784 43.43296c0 8.33024 2.3552 16.0256 6.36416 22.62528l-47.2832 78.69952c-0.78848-0.08192-1.73056-0.08192-2.51392-0.08192-23.95648 0-43.43296 19.47648-43.43296 43.42784 0 23.9616 19.4816 43.43296 43.43296 43.43296 23.95136 0 43.43296-19.4816 43.43296-43.43296a43.4432 43.4432 0 0 0-6.35904-22.62016l47.27808-78.78656c0.78336 0.08704 1.73056 0.08704 2.5088 0.08704 4.56192 0 8.87808-0.71168 12.96384-1.96096l32.44032 32.44032a43.70944 43.70944 0 0 0-1.96608 12.94848c0 23.9616 19.4816 43.43296 43.43296 43.43296s43.35616-19.47648 43.35616-43.43296c0-8.32512-2.3552-16.02048-6.35904-22.61504 0 0 49.00352-78.62272 49.79712-78.62272l-37.07904-20.72576z" fill="#26a9c6" p-id="20117"></path><path d="M363.71968 521.50784l47.2832-78.78656a43.91936 43.91936 0 0 0 15.46752-1.87904l131.67104 131.6608a43.8272 43.8272 0 0 0-1.9712 12.95872c0 23.9616 19.4816 43.43296 43.42784 43.43296 23.96672 0 43.3664-19.48672 43.3664-43.43296a43.3152 43.3152 0 0 0-6.36416-22.62016l47.27808-78.70464c0.78848 0.08192 1.73056 0.08192 2.51904 0.08192 23.95648 0 43.42784-19.4816 43.42784-43.43296 0-23.95136-19.4816-43.35616-43.42784-43.35616-23.9616 0-43.43296 19.4816-43.43296 43.43296 0 8.32512 2.3552 16.0256 6.35392 22.62016l-47.20128 78.70976c-0.78848-0.08704-1.73056-0.08704-2.51904-0.08704-4.55168 0-8.86784 0.70656-12.94848 1.96608L454.9888 412.416a43.94496 43.94496 0 0 0 1.96096-12.95872c0-23.95648-19.4816-43.43296-43.43296-43.43296-23.95136 0-43.43296 19.4816-43.43296 43.43296a43.4176 43.4176 0 0 0 6.36416 22.62528s-49.01376 78.61248-49.80224 78.61248l37.07392 20.8128z" fill="#26a9c6" p-id="20118"></path><path d="M780.20608 704.46592l139.57632 140.04736c12.88192 12.20096 12.88192 32.93184 0.45056 45.35808-12.42112 12.90752-33.152 13.35296-45.60384 0.45056l-140.49792-140.26752c-27.17184 22.57408-57.5744 41.2416-90.74688 54.81984a350.39744 350.39744 0 0 1-135.67488 27.20256c-103.42912 0-202.0096-45.85984-269.27616-125.33248-33.86368-39.59808 17.51552-76.68736 56.20736-34.06848 54.8352 60.11904 131.77344 94.19776 213.0688 94.19776 39.38304 0 76.70272-7.82336 110.55104-21.87264a286.2336 286.2336 0 0 0 93.52704-62.18752l0.47104-0.47104c26.49088-26.72128 48.14848-58.48064 62.87872-93.97248 13.81888-33.39776 21.66272-70.9376 21.66272-110.336a290.7904 290.7904 0 0 0-21.21728-108.9536l-0.45056-1.3824a287.0784 287.0784 0 0 0-61.27616-92.37504l-1.6128-1.59744c-26.95168-26.49088-58.74176-48.13312-93.98272-62.44352-33.60256-14.49472-71.15264-22.08256-110.55104-22.08256-117.69344 0-219.03872 71.85408-263.74656 172.49792-5.5296 11.99104-16.58368 19.12832-29.72672 19.12832h-0.20992c-11.52 0-20.96128-5.53984-27.19232-14.73024-6.21056-9.46176-6.912-20.51584-2.29376-31.12448C240.27648 209.92 367.43168 124.22656 507.6992 124.22656c47.67232 0 93.53216 9.6768 135.68 27.17184 43.30496 17.75104 82.45248 44.24704 114.69824 76.47744l1.8176 1.63328c31.80544 32.4608 57.14432 70.7072 74.87488 113.1008l0.68608 1.82272c17.04448 41.48224 26.27072 86.13888 26.27072 133.59616a350.47424 350.47424 0 0 1-26.9568 134.97856 356.71552 356.71552 0 0 1-54.56384 91.45856z" fill="#26a9c6" p-id="20119"></path></svg>