<?xml version="1.0" standalone="no"?><!DOCTYPE svg PUBLIC "-//W3C//DTD SVG 1.1//EN" "http://www.w3.org/Graphics/SVG/1.1/DTD/svg11.dtd"><svg t="1669089143978" class="icon" viewBox="0 0 1024 1024" version="1.1" xmlns="http://www.w3.org/2000/svg" p-id="4015" xmlns:xlink="http://www.w3.org/1999/xlink" width="128" height="128"><path d="M264.7 771c-8.3 0-15-6.7-15-15v-74.3c0-8.3 6.7-15 15-15s15 6.7 15 15V756c0 8.3-6.7 15-15 15zM512 771c-8.3 0-15-6.7-15-15V601.3c0-8.3 6.7-15 15-15s15 6.7 15 15V756c0 8.3-6.7 15-15 15zM635.6 771c-8.3 0-15-6.7-15-15V545.3c0-8.3 6.7-15 15-15s15 6.7 15 15V756c0 8.3-6.7 15-15 15zM388.4 771c-8.3 0-15-6.7-15-15V566c0-8.3 6.7-15 15-15s15 6.7 15 15v190c0 8.3-6.7 15-15 15zM759.3 771c-8.3 0-15-6.7-15-15V451.6c0-8.3 6.7-15 15-15s15 6.7 15 15V756c0 8.3-6.8 15-15 15z" fill="#26a9c6" p-id="4016"></path><path d="M760.5 253H652.4c-7.5 0-13.5 6.1-13.5 13.5S645 280 652.4 280h74.1L532.7 478.2l-139.4-63.6c-6.5-3-14.1-1-18.3 4.8L252 587.5c-4.9 6.7-3.4 16.1 3.2 21 2.7 2 5.8 2.9 8.8 2.9 4.6 0 9.2-2.1 12.1-6.1L391.9 447l137.9 62.9c5.8 2.6 12.5 1.4 17-3.2L747 302v72.7c0 7.5 6.1 13.5 13.5 13.5 7.5 0 13.5-6.1 13.5-13.5V266.5c0-7.4-6-13.5-13.5-13.5z" fill="#26a9c6" p-id="4017"></path></svg>