<?xml version="1.0" standalone="no"?><!DOCTYPE svg PUBLIC "-//W3C//DTD SVG 1.1//EN" "http://www.w3.org/Graphics/SVG/1.1/DTD/svg11.dtd"><svg t="1669018647592" class="icon" viewBox="0 0 1024 1024" version="1.1" xmlns="http://www.w3.org/2000/svg" p-id="6000" xmlns:xlink="http://www.w3.org/1999/xlink" width="256" height="256"><path d="M968.145455 404.945455l-130.327273-279.272728c-13.963636-18.618182-32.581818-32.581818-55.854546-32.581818h-539.927272c-23.272727 0-46.545455 13.963636-55.854546 32.581818l-134.981818 279.272728c-9.309091 23.272727-4.654545 51.2 9.309091 69.818181l404.945454 437.527273c13.963636 9.309091 27.927273 18.618182 46.545455 18.618182s32.581818-9.309091 46.545455-18.618182l400.290909-442.181818c18.618182-18.618182 18.618182-41.890909 9.309091-65.163636z m-456.145455 442.181818l-386.327273-418.909091 125.672728-260.654546h516.654545l125.672727 260.654546-381.672727 418.909091z" p-id="6001" fill="#26a9c6"></path><path d="M726.109091 358.4l-214.109091 242.036364-209.454545-242.036364c-13.963636-13.963636-37.236364-18.618182-55.854546-4.654545-18.618182 13.963636-18.618182 37.236364-4.654545 51.2l218.763636 251.345454c13.963636 13.963636 32.581818 23.272727 51.2 23.272727s37.236364-9.309091 46.545455-23.272727l228.072727-251.345454c13.963636-13.963636 9.309091-37.236364-4.654546-51.2-18.618182-13.963636-41.890909-9.309091-55.854545 4.654545z" p-id="6002" fill="#26a9c6"></path></svg>