<?xml version="1.0" standalone="no"?><!DOCTYPE svg PUBLIC "-//W3C//DTD SVG 1.1//EN" "http://www.w3.org/Graphics/SVG/1.1/DTD/svg11.dtd"><svg t="1668588809758" class="icon" viewBox="0 0 1024 1024" version="1.1" xmlns="http://www.w3.org/2000/svg" p-id="2725" xmlns:xlink="http://www.w3.org/1999/xlink" width="256" height="256"><path d="M1016.8 421.6c-4.7 6.6-12.2 10.2-19.8 10.2-4.9 0-9.8-1.5-14.1-4.5L511.3 90.4 188.7 320.9v617.4H834V476.1c0-13.4 10.9-24.3 24.3-24.3s24.3 10.9 24.3 24.3v486.5c0 13.4-10.9 24.3-24.3 24.3H164.4c-13.4 0-24.3-10.9-24.3-24.3v-607L39.7 427.3c-10.9 7.8-26.1 5.3-33.9-5.7-7.8-10.9-5.3-26.1 5.7-33.9L497.2 40.8c8.4-6 19.8-6 28.2 0l485.7 346.9c11 7.9 13.5 23 5.7 33.9z m-278.3-99.2c-8.7-10.2-24.1-11.4-34.2-2.7l-147.5 126-77.1-87.5c-8-9.1-21.6-10.9-31.7-4.2L289.7 459.5c-11.2 7.4-14.2 22.5-6.7 33.7 4.7 7 12.4 10.8 20.2 10.8 4.6 0 9.3-1.3 13.4-4.1l140.6-93.7 78.9 89.6c8.8 9.9 23.9 11 34 2.4l165.7-141.6c10.2-8.7 11.4-24 2.7-34.2zM332.9 615.7v235.6c0 13.4 10.9 24.3 24.3 24.3s24.3-10.9 24.3-24.3V615.7c0-13.4-10.9-24.3-24.3-24.3s-24.3 10.9-24.3 24.3z m154.1 0v235.6c0 13.4 10.9 24.3 24.3 24.3s24.3-10.9 24.3-24.3V615.7c0-13.4-10.9-24.3-24.3-24.3S487 602.3 487 615.7zM654.7 581v270.3c0 13.4 10.9 24.3 24.3 24.3s24.3-10.9 24.3-24.3V581c0-13.4-10.9-24.3-24.3-24.3s-24.3 10.9-24.3 24.3z" p-id="2726" fill="#bfbfbf"></path></svg>