<?xml version="1.0" standalone="no"?><!DOCTYPE svg PUBLIC "-//W3C//DTD SVG 1.1//EN" "http://www.w3.org/Graphics/SVG/1.1/DTD/svg11.dtd"><svg t="1668687689863" class="icon" viewBox="0 0 1024 1024" version="1.1" xmlns="http://www.w3.org/2000/svg" p-id="32784" xmlns:xlink="http://www.w3.org/1999/xlink" width="128" height="128"><path d="M757.333333 324.16V112a5.333333 5.333333 0 0 0-5.333333-5.333333H112a5.333333 5.333333 0 0 0-5.333333 5.333333v800a5.333333 5.333333 0 0 0 5.333333 5.333333h714.666667a90.666667 90.666667 0 0 0 90.666666-90.666666V334.826667a5.333333 5.333333 0 0 0-5.333333-5.333334h-149.333333a5.333333 5.333333 0 0 1-5.333334-5.333333zM677.333333 842.666667H186.666667a5.333333 5.333333 0 0 1-5.333334-5.333334V186.666667a5.333333 5.333333 0 0 1 5.333334-5.333334h490.666666a5.333333 5.333333 0 0 1 5.333334 5.333334v650.666666a5.333333 5.333333 0 0 1-5.333334 5.333334z m122.666667 0a42.666667 42.666667 0 0 1-42.666667-42.666667V409.493333a5.333333 5.333333 0 0 1 5.333334-5.333333h74.666666a5.333333 5.333333 0 0 1 5.333334 5.333333V800a42.666667 42.666667 0 0 1-42.666667 42.666667z" p-id="32785" fill="#bfbfbf"></path><path d="M258.186667 307.52m5.333333 0l336.96 0q5.333333 0 5.333333 5.333333l0 64q0 5.333333-5.333333 5.333334l-336.96 0q-5.333333 0-5.333333-5.333334l0-64q0-5.333333 5.333333-5.333333Z" p-id="32786" fill="#bfbfbf"></path><path d="M258.186667 460.053333m5.333333 0l336.96 0q5.333333 0 5.333333 5.333334l0 64q0 5.333333-5.333333 5.333333l-336.96 0q-5.333333 0-5.333333-5.333333l0-64q0-5.333333 5.333333-5.333334Z" p-id="32787" fill="#bfbfbf"></path><path d="M258.186667 612.586667m5.333333 0l213.066667 0q5.333333 0 5.333333 5.333333l0 64q0 5.333333-5.333333 5.333333l-213.066667 0q-5.333333 0-5.333333-5.333333l0-64q0-5.333333 5.333333-5.333333Z" p-id="32788" fill="#bfbfbf"></path></svg>