<?xml version="1.0" standalone="no"?><!DOCTYPE svg PUBLIC "-//W3C//DTD SVG 1.1//EN" "http://www.w3.org/Graphics/SVG/1.1/DTD/svg11.dtd"><svg t="1668690450939" class="icon" viewBox="0 0 1024 1024" version="1.1" xmlns="http://www.w3.org/2000/svg" p-id="33950" xmlns:xlink="http://www.w3.org/1999/xlink" width="128" height="128"><path d="M666.36 630.63a8.35 8.35 0 0 0 0-16.7H249.55a8.35 8.35 0 1 0 0 16.7zM254.49 668.28h406.93a8.35 8.35 0 1 0 0-16.7H254.49a8.35 8.35 0 0 0 0 16.7zM664.83 697.59a8.35 8.35 0 0 0-8.34-8.35H526.77a8.35 8.35 0 1 0 0 16.69h129.72a8.34 8.34 0 0 0 8.34-8.34zM259.42 705.93h129.7a8.35 8.35 0 1 0 0-16.69h-129.7a8.35 8.35 0 1 0 0 16.69zM581 726.89a8.35 8.35 0 0 0 0 16.7h70.56a8.35 8.35 0 0 0 0-16.7zM264.36 743.59h72.8a8.35 8.35 0 0 0 0-16.7h-72.8a8.35 8.35 0 1 0 0 16.7zM654.8 772.89a8.35 8.35 0 0 0-8.35-8.34h-37.72a8.35 8.35 0 0 0 0 16.69h37.72a8.35 8.35 0 0 0 8.35-8.35zM307.18 764.55h-37.89a8.35 8.35 0 1 0 0 16.69h37.89a8.35 8.35 0 1 0 0-16.69zM623.76 802.2a8.35 8.35 0 0 0 0 16.7h17.92a8.35 8.35 0 1 0 0-16.7zM274.56 802.2a8.35 8.35 0 0 0 0 16.7h17.61a8.35 8.35 0 1 0 0-16.7zM458 731a123.78 123.78 0 1 0 123.73 123.76A123.91 123.91 0 0 0 458 731z m0 214.15a90.38 90.38 0 1 1 90.39-90.37A90.47 90.47 0 0 1 458 945.13z" p-id="33951" fill="#bfbfbf"></path><path d="M777.25 465.62h-40.37a16.55 16.55 0 0 0-2.26-3.7l-165.5-203.68a16.68 16.68 0 0 0-25.42-0.58l-82.12 92.11L363 298.16a16.74 16.74 0 0 0-20.35 3.84L201.32 465.62h-48l-25.59-195.19a16.71 16.71 0 0 0-16.56-14.52H64.33a16.7 16.7 0 0 0 0 33.39h32.19l25.57 195.13a0.13 0.13 0 0 1 0 0.06l49.81 380a15.27 15.27 0 0 0 0.27 1.53 16.47 16.47 0 0 0 3.14 6.58l0.1 0.14c0.22 0.28 0.46 0.54 0.71 0.81 0.09 0.1 0.17 0.21 0.27 0.31s0.4 0.39 0.61 0.58 0.3 0.3 0.46 0.44 0.33 0.26 0.49 0.39 0.44 0.37 0.67 0.54l0.37 0.24c0.28 0.2 0.57 0.4 0.86 0.57l0.29 0.16c0.33 0.19 0.67 0.38 1 0.55l0.32 0.14c0.34 0.16 0.69 0.31 1 0.45l0.61 0.2c0.26 0.09 0.53 0.19 0.8 0.26a16.49 16.49 0 0 0 4.51 0.63h98a16.7 16.7 0 1 0 0-33.39h-83.27l-4.39-33.52L170 593h575.92L712.8 845.63h-83.29a16.7 16.7 0 1 0 0 33.39h98A16.69 16.69 0 0 0 744 864.5l49.8-380a16.68 16.68 0 0 0-16.56-18.87z m-221.67-171.1l139 171.1H403.05z m-196.32 39.37l79.4 41.59-76.55 85.87a16.89 16.89 0 0 0-2.77 4.27h-113.9zM167.81 576.28L157.69 499h600.54l-10.13 77.28z" p-id="33952" fill="#bfbfbf"></path><path d="M680.67 45.47c-122.94 0-231.16 74-275.7 188.59a16.7 16.7 0 0 0 31.13 12.11c39.51-101.64 135.51-167.3 244.57-167.3C825.3 78.87 943 196.54 943 341.16a262.41 262.41 0 0 1-114.58 216.78 16.69 16.69 0 1 0 18.83 27.56 295.7 295.7 0 0 0 129.11-244.34c0-163.04-132.65-295.69-295.69-295.69z" p-id="33953" fill="#bfbfbf"></path><path d="M832.23 505.45a8.37 8.37 0 0 0 5.93 2.46 8.28 8.28 0 0 0 5.88-2.42 230.13 230.13 0 0 0 68.35-164.33c0-127.76-103.95-231.7-231.72-231.7A230.27 230.27 0 0 0 497 199.92a8.35 8.35 0 0 0 13.24 10.19 213.63 213.63 0 0 1 170.46-84c118.56 0 215 96.45 215 215a213.55 213.55 0 0 1-63.41 152.48 8.35 8.35 0 0 0-0.06 11.86z" p-id="33954" fill="#bfbfbf"></path><path d="M773.82 251.29l10.23-24.42a20.92 20.92 0 0 0-38.59-16.18l-9.83 23.48-23.78-10 9.84-23.48a20.93 20.93 0 0 0-38.6-16.17L673.26 208l-13.77-5.77a20.91 20.91 0 0 0-27.37 11.2L613.9 257l29.92 36.83 18.81-44.88 76.14 31.89 9.88 4.14A29.35 29.35 0 0 1 726 339.1l-68.8-28.83 57.33 70.56c4.8 3.2 8.88 7.31 11.12 12.77 0.16 0.39 0.09 0.81 0.23 1.2L761 438c1-1.94 2.27-3.76 3.13-5.81a70.7 70.7 0 0 0 0.22-54.47c-0.08-0.19-0.2-0.35-0.28-0.53 16.85-6.91 31.33-19.61 38.9-37.68 13.81-32.95 0.64-70.33-29.15-88.22z" p-id="33955" fill="#bfbfbf"></path></svg>