<?xml version="1.0" standalone="no"?><!DOCTYPE svg PUBLIC "-//W3C//DTD SVG 1.1//EN" "http://www.w3.org/Graphics/SVG/1.1/DTD/svg11.dtd"><svg t="1668589808291" class="icon" viewBox="0 0 1024 1024" version="1.1" xmlns="http://www.w3.org/2000/svg" p-id="6848" xmlns:xlink="http://www.w3.org/1999/xlink" width="256" height="256"><path d="M549.1 739.7h-75.4C310.6 739.7 178 607.1 178 444V142.3c0-17.5 14.2-31.7 31.7-31.7h603.5c17.5 0 31.7 14.2 31.7 31.7V444c-0.1 163.1-132.7 295.7-295.8 295.7zM241.3 174v270c0 128.1 104.2 232.3 232.4 232.3h75.4c128.1 0 232.4-104.2 232.4-232.3V174H241.3z" fill="#bfbfbf" p-id="6849"></path><path d="M511.4 947.2c-17.5 0-31.7-14.2-31.7-31.7V708.1c0-17.5 14.2-31.7 31.7-31.7s31.7 14.2 31.7 31.7v207.5c0 17.4-14.2 31.6-31.7 31.6z" fill="#bfbfbf" p-id="6850"></path><path d="M775.4 947.2h-528c-17.5 0-31.7-14.2-31.7-31.7s14.2-31.7 31.7-31.7h528c17.5 0 31.7 14.2 31.7 31.7s-14.2 31.7-31.7 31.7zM204.6 532.3c-90.3 0-163.7-73.4-163.7-163.7 0-90.2 73.4-163.7 163.7-163.7 17.5 0 31.7 14.2 31.7 31.7s-14.2 31.7-31.7 31.7c-55.3 0-100.3 45-100.3 100.3s45 100.3 100.3 100.3c17.5 0 31.7 14.2 31.7 31.7s-14.2 31.7-31.7 31.7zM819.4 532.3c-17.5 0-31.7-14.2-31.7-31.7s14.2-31.7 31.7-31.7c55.3 0 100.3-45 100.3-100.3s-45-100.3-100.3-100.3c-17.5 0-31.7-14.2-31.7-31.7s14.2-31.7 31.7-31.7c90.3 0 163.7 73.4 163.7 163.7 0 90.3-73.4 163.7-163.7 163.7zM511.4 570c-12.1 0-23.1-6.9-28.4-17.7l-35.5-72-79.4-11.5c-11.9-1.7-21.9-10.1-25.6-21.6s-0.6-24.1 8-32.5l57.5-56-13.6-79.1c-2-11.9 2.9-23.9 12.6-31 9.8-7.1 22.8-8 33.4-2.4l71 37.4 71.1-37.4c10.7-5.6 23.6-4.7 33.4 2.4 9.7 7.1 14.6 19.1 12.6 31l-13.6 79.1 57.5 56c8.6 8.4 11.7 21 8 32.5s-13.6 19.8-25.6 21.6l-79.4 11.5-35.5 72c-5.4 10.9-16.5 17.7-28.5 17.7z m-70.7-154.6l32.4 4.7c10.3 1.5 19.2 8 23.9 17.3l14.5 29.4 14.5-29.4c4.6-9.3 13.5-15.8 23.8-17.3l32.4-4.7-23.4-22.8c-7.5-7.3-10.9-17.8-9.1-28l5.5-32.3-29 15.2c-9.2 4.9-20.3 4.9-29.5 0l-29-15.2 5.5 32.3c1.7 10.3-1.7 20.8-9.1 28l-23.4 22.8z" fill="#bfbfbf" p-id="6851"></path></svg>