<svg width="50" height="50" viewBox="0 0 50 50" fill="none" xmlns="http://www.w3.org/2000/svg">
<path d="M24.7396 50C45.0521 50 50 40.4145 50 24.6114C50 8.80829 45.0521 0 24.7396 0C4.42708 0 0 8.80829 0 24.6114C0 40.4145 4.42708 50 24.7396 50Z" fill="#FACB19"/>
<path fill-rule="evenodd" clip-rule="evenodd" d="M25 16.232L18.7853 22.4467L18.7855 22.4464L15.1696 18.8304L25 9L34.8336 18.8333L31.2176 22.4493L25 16.232ZM12.6161 21.3834L9 25L12.6159 28.6154L16.232 24.9992L12.6161 21.3834ZM18.7853 27.5537L25 33.768L31.2175 27.5508L34.8354 31.1649L34.8336 31.1668L25 41L15.1696 31.1696L15.1645 31.1645L18.7853 27.5537ZM37.3841 21.3854L33.768 25.0015L37.384 28.6174L41 25.0013L37.3841 21.3854Z" fill="white"/>
<path d="M28.9961 24.9979H28.9978L25.0001 21L22.0452 23.954L21.7057 24.2936L21.0056 24.9939L21 24.9993L21.0056 25.005L25.0001 29L28.998 25.0021L29 24.9999L28.9964 24.9979" fill="white"/>
</svg>
