<?xml version="1.0" encoding="utf-8"?>
<!-- Generator: Adobe Illustrator 23.0.2, SVG Export Plug-In . SVG Version: 6.00 Build 0)  -->
<svg version="1.1" id="图层_1" xmlns="http://www.w3.org/2000/svg" xmlns:xlink="http://www.w3.org/1999/xlink" x="0px" y="0px"
	 viewBox="0 0 781 807.9" style="enable-background:new 0 0 781 807.9;" xml:space="preserve">
<style type="text/css">
	.st0{fill:url(#Shape-Copy-14_1_);}
</style>
<linearGradient id="Shape-Copy-14_1_" gradientUnits="userSpaceOnUse" x1="1298.0244" y1="614.7867" x2="1295.14" y2="614.7867" gradientTransform="matrix(265.8 0 0 -277.4451 -344243.3125 170974.7656)">
	<stop  offset="0" style="stop-color:#22E6B8"/>
	<stop  offset="1" style="stop-color:#00C1CE"/>
</linearGradient>
<path id="Shape-Copy-14" class="st0" d="M519.1,300.4c-61.7-60.4-159.6-60.4-221,0c-61.1,61.4-60,161.3,0.7,222.7
	s160.2,62.1,221.3,0.7c1-1,5.3-5.6,13.1-13.9l-73.5-74.2c-7.3,9-11.7,13.6-12.1,13.6c-20.8,20.8-54.4,20.8-75.2,0
	c-20.8-20.8-20.8-54.8-0.7-75.2c20.1-20.1,53.8-20.1,74.8,0.7c0,0,65.8,65.8,197,197.7C589.5,650.8,499,700.3,401.6,700.3
	c-161.3,0-292.4-132.2-292.4-295.5s131.2-295.3,292.4-295.3c94.2,0,180.7,45.4,234.4,119.6c-8.7,10-30.8,35.4-66.5,76.2l72.8,72.8
	l120.6-136.6C700.1,99.4,559.3,5.1,401.2,5.1C182.5,5.1,4.9,184.4,4.9,405s177.2,400.3,396.3,400.3c99.5,0,182-31.5,262.5-100.5
	c73.1-62.4,107.8-149.2,107.8-149.2L519.1,300.4z"/>
</svg>
