<svg width="989" height="742" xmlns="http://www.w3.org/2000/svg" t="1668670422670" class="icon" version="1.1" p-id="11154">
 <g>
  <title>Layer 1</title>
  <path d="m489.78642,742.40006c-98.93301,0 -193.74382,-37.12 -267.94358,-107.23557c-16.48883,-16.49778 -16.48883,-41.24444 0,-57.74223c16.48883,-16.49778 41.22208,-16.49778 57.71093,0c57.71092,53.61779 131.91068,82.4889 210.23265,82.4889c28.85546,0 57.71092,-4.12444 86.56639,-12.37333c20.61104,-4.12444 45.34429,8.24889 49.46651,28.87111c8.24441,20.62223 -8.24442,45.3689 -28.85547,49.49334c-37.09988,12.37333 -70.07754,16.49779 -107.17742,16.49779l-0.00001,-0.00001zm375.12101,-317.58225c4.1222,-16.49778 4.1222,-37.12 4.1222,-53.61778c0,-206.22224 -169.01056,-371.20003 -379.24321,-371.20003c-144.27732,0 -280.31021,82.48889 -342.14334,210.34668c-8.24442,20.62222 0,45.36888 20.61105,53.61778c20.61104,8.24889 45.34429,0 53.58871,-20.62223c49.46651,-98.98667 156.64394,-164.97779 267.94358,-164.97779c164.88835,0 296.79904,127.85778 296.79904,288.71113c0,12.37333 0,28.87112 -4.12222,41.24446c-4.1222,20.62222 12.36663,45.36888 32.97768,45.36888l4.1222,0c24.73325,4.12445 41.2221,-8.24888 45.3443,-28.87111l0.00001,0.00001zm119.54406,53.61778c4.1222,-8.24888 4.1222,-20.62222 4.1222,-32.99555c0,-20.62223 -20.61105,-37.12 -45.3443,-37.12c-24.73325,0 -41.22208,24.74667 -37.09988,45.36888c-8.24441,28.87112 -169.01056,65.99112 -441.07634,0c-206.11045,-53.61778 -346.26555,-136.10668 -379.24322,-189.72446c-4.1222,-4.12444 -4.1222,-8.24889 -4.1222,-12.37333c4.1222,-20.62223 -8.24442,-45.3689 -28.85547,-49.49334c-20.61104,-4.12444 -45.34429,8.24889 -49.46651,28.87111c-4.1222,16.49779 -8.24441,45.3689 12.36663,78.36446c49.46651,86.61334 218.47708,173.22668 428.70973,226.84446c103.05522,24.74667 210.23265,41.24444 300.92125,41.24444c123.66627,4.12445 222.59928,-24.74667 239.08812,-98.98667l-0.00001,0z" fill="#1784F9" p-id="11155" id="svg_1" stroke="null"/>
  <g id="svg_2" stroke="null">
   <path id="svg_3" d="m435.94674,333.32003c-0.38413,1.49873 -0.60363,2.3773 -2.79866,1.86049l-25.02328,-5.89156l-6.42045,24.28976l46.15039,10.85287l-9.32885,35.29767l24.63915,5.7882l9.32885,-35.29767l15.3103,3.61762l-9.32885,35.24599l23.43189,5.5298l9.38373,-35.29767l17.61507,4.18611c11.74338,2.73906 56.2475,3.25586 65.85073,-33.3855a48.07104,45.27198 0 0 0 -22.33437,-52.19714s27.43781,-7.90709 31.2791,-31.57669s-13.66403,-34.67751 -23.81602,-40.72411a120.72635,113.69674 0 0 0 -25.29766,-10.33607l9.76786,-36.89976l-22.55388,-5.16803l-9.65811,36.69304l-18.10895,-4.23779l9.87761,-36.84808l-22.82825,-5.16803l-9.76786,36.84808l-47.74178,-11.21463l-5.81681,21.70574l26.17567,6.14996c2.63403,0.62016 2.30478,1.86049 2.08527,2.68738l-30.07184,113.49002zm72.2163,-105.78965l27.82193,6.5634c4.77418,1.13697 26.9988,10.33607 21.95024,28.88931a23.32213,21.96414 0 0 1 -24.41965,17.05451a32.92537,31.0082 0 0 1 -6.7497,-0.67184l-30.67547,-7.23525l12.07263,-44.60013l0.00002,0zm-17.61507,67.85628l43.46148,10.33607a23.87089,22.48095 0 0 1 16.46268,28.73427c-3.89617,14.78058 -19.31622,18.03644 -26.94393,18.03644a13.11527,12.3516 0 0 1 -3.34741,-0.31008l-41.97984,-9.81926l12.34701,-46.97743l0.00001,-0.00001z" fill="#F9934A" p-id="18274" stroke="null"/>
  </g>
  <text transform="rotate(21.2583 283.644 440.296) matrix(0.992663 0 0 0.905502 1.64727 65.5012)" stroke="#000" font-style="italic" font-weight="bold" xml:space="preserve" text-anchor="start" font-family="Noto Sans JP" font-size="67" id="svg_4" y="437.59028" x="196.83874" stroke-width="0" fill="#ffffff">COIN</text>
  <text transform="rotate(5.44808 616.289 530.496)" xml:space="preserve" text-anchor="start" font-family="'Grandstander'" font-size="67" id="svg_5" y="545.9963" x="562.4997" stroke-width="0" stroke="#000" fill="#fcfcfc">TAB</text>
  <text transform="rotate(-4.70108 507.093 724.969) matrix(0.537757 0 0 0.636596 208.24 246.535)" stroke="#000" xml:space="preserve" text-anchor="start" font-family="'Grandstander'" font-size="49" id="svg_7" y="762.58094" x="479.18598" stroke-width="0" fill="#56aaff">winter</text>
 </g>

</svg>