<svg width="64" height="64" viewBox="0 0 64 64" fill="none" xmlns="http://www.w3.org/2000/svg">
<g><path d="M65.8812 1.2012C65.7841 1.0516 65.6386 0.950401 65.4709 0.915201L63.8652 0.571995C63.552 0.571995 63.305 0.783194 63.2653 1.07359L59.1186 22.8492C59.0392 23.1264 58.5936 23.0736 58.6157 22.77V22.7612L59.8906 0.620395C59.8906 0.303595 59.6568 0.0483946 59.3568 0.0219946C59.22 0.00439463 59.0657 0 58.8936 0C58.5936 0 58.351 0.228799 58.3245 0.527999L56.1189 26.1096C56.1012 26.4308 55.6645 26.4132 55.6336 26.1228L54.2396 0.857999C54.2176 0.589599 54.0014 0.387195 53.6485 0.387195C53.6397 0.387195 53.3088 0.44 53.3088 0.44C53.0618 0.4664 52.8721 0.686395 52.8721 0.950395L53.2868 27.9752C53.278 28.2744 52.8501 28.3096 52.7971 28.0016L48.3108 2.5212C48.2711 2.2352 48.0329 2.0284 47.7461 2.0284C47.6755 2.0284 47.605 2.0416 47.4594 2.1032C47.1859 2.2132 47.0403 2.46399 47.0888 2.71039L50.512 29.282C50.5341 29.5812 50.1106 29.6648 50.0224 29.3788L42.3202 5.6364C42.2319 5.412 42.029 5.2712 41.7952 5.2712C41.6805 5.2712 41.5702 5.3064 41.482 5.3724C41.3232 5.478 41.2394 5.6408 41.2614 5.9664L47.5432 29.7484C47.605 30.03 47.2168 30.1708 47.0712 29.9024L47.058 29.876L37.1545 10.1068C37.0751 9.9484 36.9207 9.8516 36.7486 9.8516C36.6163 9.8516 36.4884 9.9088 36.4089 10.0012C36.3251 10.0804 36.281 10.1948 36.281 10.3136C36.281 10.34 36.3031 10.472 36.3119 10.494L44.6273 29.5196C44.7552 29.7924 44.3714 30.008 44.1906 29.7572L44.1641 29.7176L33.5945 15.0304C33.5107 14.9292 33.3916 14.872 33.2681 14.872C33.2328 14.872 33.0563 14.9424 33.0254 14.96C32.9284 15.026 32.8755 15.1316 32.8755 15.2548C32.8755 15.29 32.9196 15.4484 32.9416 15.4792L40.9482 27.6452C41.1114 27.9004 40.7674 28.1732 40.5468 27.9532C40.5468 27.9532 15.4903 2.7368 15.4771 2.7368C15.4771 2.7368 15.4771 2.7368 15.4771 2.7412C14.5948 1.9008 13.4434 1.4388 12.2347 1.4388C10.1129 1.4388 8.30863 2.8952 7.84544 4.9808L0.0108815 42.306C-0.0244094 42.4776 0.00647011 42.6536 0.10352 42.7988C0.20057 42.9484 0.346144 43.0496 0.518187 43.0848L2.12392 43.428C2.43271 43.428 2.67975 43.2168 2.72386 42.9264L6.86612 21.1596C6.94112 20.8692 7.39548 20.922 7.37784 21.2344L6.10296 43.384C6.10296 43.7008 6.33676 43.956 6.64114 43.9824C6.75584 44 6.88818 44 7.00287 44C7.02052 44 7.09551 44 7.10434 44C7.3999 44 7.64693 43.7712 7.6734 43.472L9.87908 17.8948C9.89672 17.5648 10.3511 17.5824 10.3731 17.8948L11.7583 43.1464C11.7804 43.4148 11.9965 43.6172 12.3494 43.6172C12.3583 43.6172 12.6891 43.5644 12.6891 43.5644C12.9361 43.538 13.1258 43.318 13.1258 43.054L12.7068 16.038C12.7068 15.7256 13.1435 15.6904 13.2008 15.9984L17.6872 41.4788C17.7269 41.7648 17.9651 41.9716 18.2518 41.9716C18.3224 41.9716 18.393 41.9584 18.5386 41.8968C18.8077 41.7912 18.9576 41.5404 18.9091 41.2896L15.4815 14.7312C15.4462 14.4232 15.8829 14.3308 15.9756 14.6212V14.63L23.6778 38.3592C23.766 38.5836 23.9689 38.7288 24.2027 38.7288C24.3174 38.7288 24.4277 38.6936 24.5159 38.6276C24.6748 38.522 24.7586 38.3592 24.7365 38.0292L18.4547 14.256C18.3797 13.9612 18.7812 13.816 18.9268 14.0888L28.8391 33.8844C28.9185 34.0384 29.0729 34.1352 29.2449 34.1352C29.3773 34.1352 29.5052 34.078 29.5846 33.9856C29.664 33.9064 29.7125 33.792 29.7125 33.6732C29.7125 33.6468 29.6905 33.5148 29.6816 33.4928L21.3662 14.4672C21.2383 14.1944 21.6221 13.9788 21.803 14.2296L21.825 14.2604L32.399 28.9564C32.4828 29.0576 32.602 29.1148 32.7255 29.1148C32.7608 29.1148 32.9372 29.0444 32.9637 29.0268C33.0651 28.9608 33.1181 28.8552 33.1181 28.7276C33.1181 28.6924 33.074 28.534 33.0519 28.5032L25.0453 16.3372C24.8821 16.082 25.2262 15.8136 25.4423 16.0248C49.4268 39.9344 50.4944 41.2412 50.5164 41.2412C50.5164 41.2412 50.5164 41.2412 50.5164 41.2368C51.3987 42.0772 52.5501 42.5392 53.7588 42.5392C55.8762 42.5392 57.6805 41.0828 58.1481 38.9972L65.9827 1.6808C66.0179 1.5092 65.9871 1.3332 65.89 1.188L65.8812 1.2012Z" fill="currentColor"></path></g>
</svg>
