<?xml version="1.0" standalone="no"?><!DOCTYPE svg PUBLIC "-//W3C//DTD SVG 1.1//EN" "http://www.w3.org/Graphics/SVG/1.1/DTD/svg11.dtd"><svg t="1573999792967" class="icon" viewBox="0 0 1024 1024" version="1.1" xmlns="http://www.w3.org/2000/svg" p-id="5088" xmlns:xlink="http://www.w3.org/1999/xlink" width="512" height="512"><defs><style type="text/css"></style></defs><path d="M761.183 328.294H623.91c-4.857-67.408-40.96-101.17-108.369-101.17-69.895 4.856-106.028 33.762-108.398 86.717-4.856 50.586 36.133 81.891 122.851 93.916 4.798 2.428 9.567 4.856 14.424 7.226C703.4 446.318 781.605 506.53 779.235 595.588c-4.857 139.703-99.972 211.91-285.404 216.766-175.835-2.429-261.354-75.864-256.497-220.365h144.501c0 79.492 37.303 120.452 111.996 122.822 86.718-2.37 131.248-31.276 133.676-86.719 0-43.33-42.16-74.635-126.45-93.915-9.654-2.37-18.05-4.798-25.277-7.227-149.358-31.275-222.793-92.686-220.394-184.232 7.226-134.846 99.942-208.31 278.177-220.365 144.53 9.684 220.394 78.322 227.62 205.941z" fill="#ffffff" p-id="5089"></path></svg>