<?xml version="1.0" standalone="no"?><!DOCTYPE svg PUBLIC "-//W3C//DTD SVG 1.1//EN" "http://www.w3.org/Graphics/SVG/1.1/DTD/svg11.dtd"><svg t="1573999681070" class="icon" viewBox="0 0 1024 1024" version="1.1" xmlns="http://www.w3.org/2000/svg" p-id="2274" xmlns:xlink="http://www.w3.org/1999/xlink" width="512" height="512"><defs><style type="text/css"></style></defs><path d="M448 226.88C392.064 212.928 219.904 264.128 80.256 468.928c-139.648 204.8-79.104 372.352 79.104 451.52 139.648 69.824 414.272 69.824 572.48-32.576 148.992-97.728 190.848-232.768 125.696-307.264-65.216-74.432-111.68-55.808-111.68-65.152-4.672-9.344 41.856-102.4-4.672-144.32C694.656 329.344 559.616 361.856 517.76 389.824 499.136 403.776 499.136 380.48 503.808 361.856 503.808 343.296 527.104 250.176 448 226.88zM736.512 231.552c-41.856 4.672-46.528 74.496 4.672 69.824s97.728 23.296 74.432 97.728C806.4 422.4 857.536 454.976 880.896 417.728c27.904-41.92 4.608-125.696-37.248-158.272C797.056 231.552 764.48 226.88 736.512 231.552zM717.952 82.624c-55.872 9.344-55.872 93.12 4.672 88.448C783.104 166.4 848.256 166.4 899.456 231.552s55.872 144.256 37.248 200.128c-18.624 51.2 55.808 79.104 74.432 27.904 18.624-51.2 18.624-195.456-46.528-269.952C899.456 110.592 815.616 73.344 717.952 82.624zM395.648 487.552C563.2 473.6 702.848 552.768 712.128 669.12c9.344 116.288-116.352 223.36-283.904 241.984-167.552 14.016-307.2-65.152-316.48-181.504S232.704 506.176 395.648 487.552zM563.2 655.104c-18.56-83.776-107.008-125.696-195.456-102.4-88.448 27.904-144.32 111.68-125.696 190.784 18.624 83.84 107.072 125.696 195.52 102.464C525.952 822.656 581.824 734.272 563.2 655.104zM367.744 780.8c-27.968 9.344-60.544-4.672-65.216-32.576-4.608-23.296 13.952-51.264 41.92-60.48C372.352 678.4 404.928 692.352 409.6 720.256 414.272 748.224 395.648 776.128 367.744 780.8zM442.176 697.024c-13.952 0-23.296-4.608-27.968-13.952 0-9.344 4.672-18.624 18.624-23.296C446.848 655.104 456.128 664.448 460.8 673.728S456.128 697.024 442.176 697.024z" p-id="2275" fill="#ffffff"></path></svg>